<svg width="26" height="18" viewBox="0 0 26 18" fill="none" xmlns="http://www.w3.org/2000/svg">
<path d="M17.3536 9.43042L25.7817 14.7585V3.87729L17.3536 9.43042Z" fill="#CACACA"/>
<path d="M0.781738 3.87729V14.7585L9.20986 9.43042L0.781738 3.87729Z" fill="#CACACA"/>
<path d="M24.2192 0.708542H2.34424C1.56455 0.708542 0.945801 1.28979 0.828613 2.03823L13.2817 10.2429L25.7349 2.03823C25.6177 1.28979 24.9989 0.708542 24.2192 0.708542Z" fill="#CACACA"/>
<path d="M15.9224 10.3742L13.7114 11.8304C13.5802 11.9164 13.4317 11.9585 13.2817 11.9585C13.1317 11.9585 12.9833 11.9164 12.8521 11.8304L10.6411 10.3726L0.831738 16.5773C0.952051 17.3195 1.56768 17.896 2.34424 17.896H24.2192C24.9958 17.896 25.6114 17.3195 25.7317 16.5773L15.9224 10.3742Z" fill="#CACACA"/>
</svg>
