<svg width="26" height="26" viewBox="0 0 26 26" fill="none" xmlns="http://www.w3.org/2000/svg">
<path d="M5.38475 11.8392H7.05787V13.5123H5.38475V11.8392Z" fill="#CACACA"/>
<path d="M0.781738 22.482C0.781738 23.9673 1.99004 25.1756 3.4753 25.1756H23.088C24.5734 25.1756 25.7817 23.9673 25.7817 22.482V7.91676H0.781738V22.482ZM10.9283 10.3744H21.9113C22.3157 10.3744 22.6438 10.7023 22.6438 11.1068C22.6438 11.5112 22.3157 11.8392 21.9113 11.8392H10.9283C10.5237 11.8392 10.1958 11.5112 10.1958 11.1068C10.1958 10.7023 10.5237 10.3744 10.9283 10.3744ZM10.9283 13.5124H21.9113C22.3157 13.5124 22.6438 13.8402 22.6438 14.2448C22.6438 14.6493 22.3157 14.9772 21.9113 14.9772H10.9283C10.5237 14.9772 10.1958 14.6493 10.1958 14.2448C10.1958 13.8402 10.5237 13.5124 10.9283 13.5124ZM3.9199 11.1068C3.9199 10.7023 4.24777 10.3744 4.65232 10.3744H7.79029C8.19484 10.3744 8.52271 10.7023 8.52271 11.1068V14.2448C8.52271 14.6493 8.19484 14.9772 7.79029 14.9772H4.65232C4.24777 14.9772 3.9199 14.6493 3.9199 14.2448V11.1068ZM4.65232 16.6503H21.9113C22.3157 16.6503 22.6438 16.9782 22.6438 17.3827C22.6438 17.7873 22.3157 18.1152 21.9113 18.1152H4.65232C4.24777 18.1152 3.9199 17.7873 3.9199 17.3827C3.9199 16.9782 4.24758 16.6503 4.65232 16.6503ZM4.65232 19.7885H21.9113C22.3157 19.7885 22.6438 20.1164 22.6438 20.5209C22.6438 20.9253 22.3157 21.2533 21.9113 21.2533H4.65232C4.24777 21.2533 3.9199 20.9253 3.9199 20.5209C3.9199 20.1164 4.24758 19.7885 4.65232 19.7885Z" fill="#CACACA"/>
<path d="M23.088 0.17572H3.4753C1.99004 0.17572 0.781738 1.38403 0.781738 2.86928V6.45166H25.7817V2.86928C25.7817 1.38403 24.5734 0.17572 23.088 0.17572ZM18.7732 4.77853H7.7901C7.38574 4.77853 7.05768 4.45066 7.05768 4.04611C7.05768 3.64156 7.38574 3.31369 7.7901 3.31369H18.7732C19.1777 3.31369 19.5056 3.64156 19.5056 4.04611C19.5056 4.45066 19.1777 4.77853 18.7732 4.77853Z" fill="#CACACA"/>
</svg>
