<svg width="5" height="15" viewBox="0 0 5 15" fill="none" xmlns="http://www.w3.org/2000/svg">
<path d="M0 13.1262C-9.78424e-09 12.8801 0.0646642 12.6364 0.190301 12.4091C0.315938 12.1817 0.500087 11.9752 0.732234 11.8012C0.96438 11.6272 1.23998 11.4891 1.54329 11.395C1.84661 11.3008 2.1717 11.2523 2.5 11.2523C2.8283 11.2523 3.1534 11.3008 3.45671 11.395C3.76002 11.4891 4.03562 11.6272 4.26777 11.8012C4.49991 11.9752 4.68406 12.1817 4.8097 12.4091C4.93534 12.6364 5 12.8801 5 13.1262C5 13.6231 4.73661 14.0998 4.26777 14.4512C3.79893 14.8026 3.16304 15 2.5 15C1.83696 15 1.20107 14.8026 0.732234 14.4512C0.263393 14.0998 0 13.6231 0 13.1262V13.1262ZM0.245 1.87383C0.211708 1.63743 0.245097 1.39842 0.343001 1.17232C0.440904 0.946216 0.601135 0.738066 0.813297 0.561375C1.02546 0.384684 1.28481 0.243399 1.57453 0.146688C1.86424 0.0499767 2.17785 0 2.495 0C2.81215 0 3.12576 0.0499767 3.41547 0.146688C3.70519 0.243399 3.96454 0.384684 4.1767 0.561375C4.38886 0.738066 4.5491 0.946216 4.647 1.17232C4.7449 1.39842 4.77829 1.63743 4.745 1.87383L3.87 8.44535C3.8406 8.70351 3.68301 8.944 3.42839 9.11924C3.17377 9.29449 2.84068 9.39173 2.495 9.39173C2.14932 9.39173 1.81623 9.29449 1.56161 9.11924C1.30699 8.944 1.1494 8.70351 1.12 8.44535L0.245 1.87383Z" fill="#BF8125"/>
</svg>
