<svg width="26" height="26" viewBox="0 0 26 26" fill="none" xmlns="http://www.w3.org/2000/svg">
<path d="M25.0493 23.818H1.51416C1.10933 23.818 0.781738 24.1456 0.781738 24.5504C0.781738 24.9553 1.10933 25.2829 1.51416 25.2829H25.0493C25.4542 25.2829 25.7817 24.9553 25.7817 24.5504C25.7817 24.1456 25.4542 23.818 25.0493 23.818Z" fill="#CACACA"/>
<path d="M7.42236 12.0504H2.979C2.57417 12.0504 2.24658 12.378 2.24658 12.7829V16.445H8.15479V12.7829C8.15479 12.378 7.8272 12.0504 7.42236 12.0504Z" fill="#CACACA"/>
<path d="M8.15479 17.9098H2.24658V22.3532H8.15479V17.9098Z" fill="#CACACA"/>
<path d="M15.479 6.19106H11.0845C10.6796 6.19106 10.3521 6.51864 10.3521 6.92348V16.445H16.2114V6.92348C16.2114 6.51864 15.8838 6.19106 15.479 6.19106Z" fill="#CACACA"/>
<path d="M16.2114 17.9098H10.3521V22.3532H16.2114V17.9098Z" fill="#CACACA"/>
<path d="M23.5845 0.282852H19.1411C18.7363 0.282852 18.4087 0.61044 18.4087 1.01527V7.6559H24.3169V1.01527C24.3169 0.61044 23.9893 0.282852 23.5845 0.282852Z" fill="#CACACA"/>
<path d="M24.3169 9.12074H18.4087V22.3532H24.3169V9.12074Z" fill="#CACACA"/>
</svg>
