<svg viewBox="0 0 1404 855" fill="none" xmlns="http://www.w3.org/2000/svg">
<path fill-rule="evenodd" clip-rule="evenodd" d="M1298.94 465.497C1241.33 680.489 1020.35 808.075 805.353 750.468C635.849 705.05 520.677 558.074 507.761 392.548C502.605 326.463 465.589 261.245 401.562 244.089C339.105 227.354 275.996 265.459 227.841 308.61C171.864 358.769 92.4651 380.557 14.4476 359.652C-108.363 326.745 -181.244 200.512 -148.337 77.7015C-115.43 -45.1088 10.8038 -117.99 133.614 -85.083C190.379 -69.8728 236.477 -34.7238 266.392 10.8099C304.667 69.0697 348.692 131.82 416.025 149.861C492.115 170.25 569.749 130.549 625.71 75.1082C724.187 -22.4505 870.413 -66.5528 1013.97 -28.0877C1228.96 29.5194 1356.54 250.505 1298.94 465.497Z" fill="url(#paint0_linear)"/>
<defs>
<linearGradient id="paint0_linear" x1="679.607" y1="-117.679" x2="470.994" y2="660.877" gradientUnits="userSpaceOnUse">
<stop stop-color="#7F7FD5"/>
<stop offset="1" stop-color="#E786D7"/>
</linearGradient>
</defs>
</svg>
